<?xml version="1.0" encoding="UTF-8" standalone="no"?>
<!-- Created with Inkscape (http://www.inkscape.org/) -->

<svg
   width="26.094118mm"
   height="20.35261mm"
   viewBox="0 0 26.094118 20.35261"
   version="1.1"
   id="svg1"
   xmlns="http://www.w3.org/2000/svg"
   xmlns:svg="http://www.w3.org/2000/svg">
  <defs
     id="defs1" />
  <g
     id="layer1"
     transform="translate(-42.585521,-36.087413)">
    <path
       id="rect1"
       style="fill:none;fill-opacity:1;stroke:#000000;stroke-width:0.265;stroke-linecap:butt;stroke-linejoin:miter;stroke-dasharray:none;stroke-opacity:1"
       transform="rotate(36.321896)"
       d="m 63.969135,-2.0082678 1.03e-4,12.5999118 c 0,1.343295 1.081433,2.424912 2.424728,2.424912 l 10.165424,1.77e-4 c 1.343295,0 2.424606,-1.081849 2.424606,-2.425144 l 7.3e-5,-13.0830035 c -4.998153,0.2869774 -10.008068,0.4622043 -15.014934,0.483148 z" />
    <path
       style="fill:none;fill-opacity:1;stroke:#000000;stroke-width:0.264999;stroke-linecap:butt;stroke-linejoin:miter;stroke-dasharray:none;stroke-opacity:1"
       d="m 60.6,41.6 c 0.1,0 0.3,0 0.4,-0.1 0.1,0 0.1,-0.1 0.2,-0.1 0.2,-0.1 0.4,-0.2 0.7,-0.2 0.2,-0.1 0.3,-0.1 0.5,-0.2 0.2,-0.1 0.5,0 0.7,0 h 0.7 0.2 v 0 h 0.2 c 0.1,0 0.1,0.1 0.2,0.1 h 0.4 c 0.1,0 0.1,0.1 0.1,0.1 0.3,0.1 0,-0.1 0.3,0 0.1,0.1 0.3,0.2 0.4,0.2 h 0.2 c 0.2,0.1 1,0.4 1.1,0.7 v 0.2 c 0,0.1 0.2,0.2 0.2,0.2 0.1,0.2 0.1,0.4 0.2,0.5 0.1,0.1 0.1,0.2 0.2,0.3 0.2,0.3 0.3,0.7 0.4,1.1 0.1,0.1 0.1,0.2 0.2,0.3 0.2,0.4 0,0.1 0.1,0.5 0.1,0.2 0.2,0.4 0.2,0.7 0,0.3 -0.1,0.1 0,0.4 0,0.1 0.1,0.1 0.1,0.2 0.1,0.3 0,0.8 0,1.1 0,0.3 0.1,0.8 0,1 -0.1,0.3 -0.3,0.7 -0.4,1 -0.1,0.2 -0.2,0.7 -0.4,0.9 -0.1,0.1 -0.1,0 -0.1,0 -0.2,-0.1 -0.1,0.1 -0.1,0.1 h -0.1 c -0.1,0 -0.3,0.1 -0.4,0.1 l -0.1,0.1 c -0.1,0.1 -0.2,0.1 -0.3,0.1 -0.1,0 -0.2,0.1 -0.3,0.2 h -0.1 v 0 h -0.1 v 0 H 66 c -0.2,0.1 -0.3,0.1 -0.6,0.1 H 65.1 65 64.8 L 64.7,51.1 C 64.6,51 64.5,51 64.5,51 64.4,51 64.4,50.9 64.4,50.9 H 64.2 L 64.1,50.8 C 64,50.7 63.8,50.7 63.7,50.6 63.6,50.5 63.6,50.4 63.5,50.4 H 63.4 V 50.3 H 63.3 V 50.2 L 63.2,50.1 63,49.8 v -0.1 -0.3 0 -0.2 0 -0.1 l 0.3,-0.2 h 0.1 c 0.1,0 0,0 0,-0.1 h 0.1 c 0.1,0 0.1,-0.1 0.2,-0.1 h 0.1 c 0.1,-0.1 0.02102,-0.02036 0.142287,0.0524 l 0.04122,0.02473 -0.140161,-0.04229 0.222609,-0.01037 0.17314,-0.17314 0.18963,-0.223672 c 0.06467,-0.07628 0.14109,-0.134262 0.207182,-0.209307 l 0.206119,-0.234042 c 0.1,-0.1 0.123672,-0.332979 0.123672,-0.432979 l 0.02717,-0.284943 c 0,-0.1 -0.13329,-0.270645 -0.03329,-0.370645 0.04607,0.01 -0.07188,0.05652 -0.0055,-0.232402 0.144158,-0.62774 0.07114,-1.415883 0.431106,-1.948985 0,0 -0.595293,-0.301863 -0.712238,-0.381385 l -0.412239,-0.280322 0.163833,0.181385 -0.08245,-0.09894 c -0.09054,-0.108643 -0.335105,-0.232979 -0.435105,-0.232979 -0.3,-0.1 -0.130853,-0.115427 -0.330853,-0.215427 -0.2,-0.1 -0.283511,-0.298937 -0.483511,-0.298937 -0.1,0 -0.216489,-0.182448 -0.216489,-0.182448 l -0.264895,-0.263833 c -0.4,-0.1 -0.221804,-0.08564 -0.521804,-0.285636 -0.2,-0.1 -0.367021,-0.248405 -0.567021,-0.348405 -0.2,-0.1 -0.201063,-0.101063 -0.401063,-0.201063 -0.6,-0.3 -0.695748,-0.494686 -0.895748,-0.694686"
       id="path6" />
    <path
       style="fill:#000000;fill-opacity:1;stroke:#000000;stroke-width:0.264999;stroke-linecap:butt;stroke-linejoin:miter;stroke-dasharray:none;stroke-opacity:1"
       d="m 56.243053,42.177261 c -0.06218,0.03109 -0.217649,0.03109 -0.186558,0.09328 0.03109,0.06218 0.208545,-0.15924 0.186558,-0.09328 -0.10015,0.30045 -0.326475,0.28875 -0.326475,0.559673 0,0.03737 -0.02978,0.250058 0,0.279837 0.0204,0.0204 0.289635,0.01841 0.326475,0 0.05597,-0.02799 0.08395,-0.111935 0.13992,-0.13992 0.05729,-0.02865 0.151434,-0.02304 0.186557,-0.09328 0.007,-0.01389 -0.01101,-0.03565 0,-0.04664 0.01101,-0.01101 0.03565,0.01098 0.04664,0 0.04941,-0.04941 0.04664,-0.208349 0.04664,-0.279837 0,-0.04678 0.007,-0.110146 -0.04664,-0.139919 -0.116113,-0.06451 -0.248743,-0.09328 -0.373116,-0.139917 z"
       id="path7" />
    <path
       style="fill:none;fill-opacity:1;stroke:#000000;stroke-width:0.264999;stroke-linecap:butt;stroke-linejoin:miter;stroke-dasharray:none;stroke-opacity:1"
       d="m 56.394209,42.674915 c -0.31832,0.09789 -0.528127,0.395841 -0.857456,0.461706 -0.322379,0.06448 -0.650865,0.07218 -0.989373,0.131919 -0.220802,0.03896 -0.436737,0.107153 -0.659582,0.131916 -0.106003,0.01177 -0.855393,-0.01029 -0.989372,0 -0.462521,0.03558 -0.924843,0.08589 -1.385121,0.131916 -0.557413,0.05574 -1.155075,0 -1.71491,0 -0.276106,0 -0.582448,0.03056 -0.857456,0 -0.330528,-0.03673 -0.658413,-0.101831 -0.989372,-0.131916 -0.131374,-0.01193 -0.264221,0.01011 -0.395748,0 -0.382432,-0.02942 -0.743125,-0.155859 -1.121288,-0.197874 -0.08741,-0.0097 -0.177597,0.01725 -0.263835,0 -0.09363,-0.01873 -1.355275,-0.695696 -1.451078,-0.791499 -0.06953,-0.06953 -0.07737,-0.182022 -0.131916,-0.263832 -0.126318,-0.189476 -0.229479,-0.130267 -0.395751,-0.329792 -0.04451,-0.05341 -0.03486,-0.135689 -0.06596,-0.197874 -0.04171,-0.08343 -0.146132,-0.120261 -0.197874,-0.197874 -0.130685,-0.19603 -0.339508,-0.566534 -0.395747,-0.791498 -0.01066,-0.04266 0.01966,-0.09259 0,-0.131916 -0.02781,-0.05562 -0.101063,-0.07792 -0.131916,-0.131916 -0.206958,-0.362175 -0.329973,-0.792044 -0.461709,-1.187247 -0.02543,-0.07625 -0.294608,-0.49689 -0.197874,-0.593624 0.05763,-0.05763 0.278276,-0.106156 0.32979,-0.131916 0.414639,-0.207317 0.738465,-0.444029 1.187249,-0.593622 0.383757,-0.127921 0.790379,-0.296254 1.121288,-0.461708 0.06873,-0.03437 1.492779,-0.02604 1.648952,0 0.06858,0.01143 0.129294,0.05453 0.197874,0.06596 0.178234,0.02971 0.42199,-0.05721 0.593625,0 0.02949,0.0098 0.03815,0.05205 0.06596,0.06596 0.05899,0.0295 0.1353,-0.02085 0.197874,0 0.0295,0.0098 0.03815,0.05205 0.06596,0.06596 0.03933,0.01966 0.0902,-0.01389 0.131916,0 0.222728,0.07424 0.433866,0.141446 0.659582,0.197876 0.137615,0.0344 0.555053,0.01368 0.65958,0.06596 0.05562,0.02781 0.08018,0.09742 0.131918,0.131916 0.08094,0.05396 0.234654,0.04693 0.32979,0.06596 0.132453,-0.01513 0.214927,0.103201 0.32979,0.131916 0.253304,0.06332 0.592968,0 0.857457,0"
       id="path10" />
  </g>
</svg>
