<?xml version="1.0" encoding="UTF-8" standalone="no"?>
<!-- Created with Inkscape (http://www.inkscape.org/) -->

<svg
   width="7.8654799mm"
   height="9.8323946mm"
   viewBox="0 0 7.8654799 9.8323946"
   version="1.1"
   id="svg1"
   xml:space="preserve"
   xmlns="http://www.w3.org/2000/svg"
   xmlns:svg="http://www.w3.org/2000/svg"><defs
     id="defs1" /><g
     id="layer1"
     transform="translate(-61.655518,-89.431424)"><path
       style="fill:#ff0000;fill-opacity:1;stroke:none;stroke-opacity:1"
       d="m 62.545533,98.257989 c -0.750376,-1.795902 -1.003542,-3.277696 -0.844656,-4.943813 0.306688,-3.216007 0.855871,-3.882759 3.198105,-3.882759 1.389854,0 3.177267,1.276736 4.109468,2.935365 0.537124,0.955682 0.591847,1.308286 0.437243,2.817309 -0.351596,3.431779 -0.524999,3.584427 -4.441875,3.910206 l -2.038028,0.169515 z m 4.800455,0.281048 c 1.149917,-0.173582 1.363258,-0.523313 1.720342,-2.820169 0.384145,-2.470918 0.156875,-3.137462 -1.644195,-4.822153 C 66.261418,89.811001 66.01461,89.696 64.845229,89.696 c -1.502045,0 -2.065441,0.459928 -2.488123,2.031176 -0.564634,2.098925 -0.548508,3.501705 0.06208,5.400649 l 0.590442,1.836277 1.751523,-0.149637 c 0.963338,-0.0823 2.126512,-0.206243 2.584833,-0.275428 z m -0.531511,-4.929939 c -0.08926,-0.333193 -0.149054,-1.022525 -0.132886,-1.531848 0.02244,-0.70706 0.0792,-0.582182 0.239996,0.528092 0.221305,1.528045 0.167758,2.029851 -0.10711,1.003756 z M 63.734553,92.871 c 0,-0.582083 0.09244,-1.058333 0.20543,-1.058333 0.112986,0 0.160011,0.47625 0.104501,1.058333 -0.05551,0.582083 -0.147954,1.058333 -0.20543,1.058333 -0.05748,0 -0.104501,-0.47625 -0.104501,-1.058333 z"
       id="path1" /></g></svg>
